<?xml version="1.0" encoding="UTF-8" standalone="no"?>
<!-- Created with Inkscape (http://www.inkscape.org/) -->

<svg
   xmlns:dc="http://purl.org/dc/elements/1.1/"
   xmlns:cc="http://creativecommons.org/ns#"
   xmlns:rdf="http://www.w3.org/1999/02/22-rdf-syntax-ns#"
   xmlns:svg="http://www.w3.org/2000/svg"
   xmlns="http://www.w3.org/2000/svg"
   xmlns:sodipodi="http://sodipodi.sourceforge.net/DTD/sodipodi-0.dtd"
   xmlns:inkscape="http://www.inkscape.org/namespaces/inkscape"
   width="400"
   height="400"
   viewBox="0 0 105.83333 105.83334"
   version="1.1"
   id="svg8"
   inkscape:version="0.92.4 (unknown)"
   sodipodi:docname="Unterlegscheibe.svg"
   inkscape:export-filename="/home/robert/CloudStation/Hobby/Projekte/Schraubensortierer/Asset/Unterlegscheibe.png"
   inkscape:export-xdpi="96"
   inkscape:export-ydpi="96">
  <defs
     id="defs2" />
  <sodipodi:namedview
     id="base"
     pagecolor="#ffffff"
     bordercolor="#666666"
     borderopacity="1.0"
     inkscape:pageopacity="1"
     inkscape:pageshadow="2"
     inkscape:zoom="0.98994949"
     inkscape:cx="201.8342"
     inkscape:cy="154.28986"
     inkscape:document-units="mm"
     inkscape:current-layer="layer1"
     showgrid="false"
     units="px"
     inkscape:window-width="1366"
     inkscape:window-height="718"
     inkscape:window-x="0"
     inkscape:window-y="0"
     inkscape:window-maximized="1" />
  <metadata
     id="metadata5">
    <rdf:RDF>
      <cc:Work
         rdf:about="">
        <dc:format>image/svg+xml</dc:format>
        <dc:type
           rdf:resource="http://purl.org/dc/dcmitype/StillImage" />
        <dc:title></dc:title>
      </cc:Work>
    </rdf:RDF>
  </metadata>
  <g
     inkscape:label="Ebene 1"
     inkscape:groupmode="layer"
     id="layer1"
     transform="translate(0,-191.16665)">
    <path
       style="fill:#000000;fill-opacity:1;stroke:none;stroke-width:0.64511132;stroke-linecap:round;stroke-linejoin:bevel;stroke-miterlimit:4;stroke-dasharray:none;stroke-opacity:1"
       d="M 76.305669,220.0264 A 18.575233,18.575233 0 0 0 57.730442,238.60163 18.575233,18.575233 0 0 0 76.305669,257.17686 18.575233,18.575233 0 0 0 94.880905,238.60163 18.575233,18.575233 0 0 0 76.305669,220.0264 Z m 0,8.13495 A 10.440399,10.440399 0 0 1 86.745941,238.60163 10.440399,10.440399 0 0 1 76.305669,249.0419 10.440399,10.440399 0 0 1 65.865038,238.60163 10.440399,10.440399 0 0 1 76.305669,228.16135 Z"
       id="path4518"
       inkscape:connector-curvature="0" />
    <g
       style="enable-background:new"
       id="g887"
       transform="matrix(0.72867646,0,0,0.72867646,8.4687108,239.53655)">
      <g
         transform="translate(0,-191.16665)"
         id="layer1-3"
         inkscape:label="Ebene 1">
        <rect
           y="234.81104"
           x="-0.80180812"
           height="20.9149"
           width="80.944481"
           id="rect4592"
           style="fill:#000008;fill-opacity:1;stroke:none;stroke-width:1.28575468;stroke-linecap:round;stroke-linejoin:bevel;stroke-miterlimit:4;stroke-dasharray:none;stroke-opacity:1" />
        <rect
           style="fill:#000008;fill-opacity:1;stroke:none;stroke-width:0.85164475;stroke-linecap:round;stroke-linejoin:bevel;stroke-miterlimit:4;stroke-dasharray:none;stroke-opacity:1"
           id="rect4594"
           width="18.390686"
           height="40.387394"
           x="64.997406"
           y="225.0748" />
      </g>
    </g>
    <g
       style="enable-background:new"
       id="g938"
       transform="matrix(0.74277953,0,0,0.74277953,-0.2618945,183.262)">
      <g
         transform="translate(-10.075058,-192.96577)"
         id="layer1-1"
         inkscape:label="Ebene 1">
        <path
           inkscape:connector-curvature="0"
           id="path4546"
           d="m 35.821854,214.46718 -17.097148,29.61318 17.097148,29.61369 H 70.016665 L 87.114329,244.08087 70.016665,214.46718 Z m 17.097664,12.24111 a 17.372519,17.372519 0 0 1 17.372584,17.37207 17.372519,17.372519 0 0 1 -17.372584,17.37258 17.372519,17.372519 0 0 1 -17.372583,-17.37258 17.372519,17.372519 0 0 1 17.372583,-17.37207 z"
           style="fill:#000000;fill-opacity:1;stroke:none;stroke-width:0.9375;stroke-linecap:round;stroke-linejoin:bevel;stroke-miterlimit:4;stroke-dasharray:none;stroke-opacity:1" />
      </g>
    </g>
  </g>
</svg>
